<svg xmlns="http://www.w3.org/2000/svg" data-name="Layer 1" viewBox="0 0 128 128" width="100" height="100"><path fill="#ffdb80" d="M41.81 60a23.154 23.154 0 0 1 16.264 6.597 22.509 22.509 0 0 1 6.754 13.76 20.145 20.145 0 0 1 5.698-14.206 20.66 20.66 0 0 1 14.58-6.146 19.646 19.646 0 0 1 4.516.526 7.31 7.31 0 0 1 5.258 4.572C96.43 61.34 97.635 58.279 98 57c1.333-4.666-1.417-16.667-1.417-16.667-4.083-3.166-7.083 5.334-7.083 5.334L88.25 55.5l-7-.583c-3.833-8.334 2.417-8.167 2.618-16.709s-7.535-13.375-6.118-9.375.167 9.917-4.25 10.334-6.25-4.834-2.583-18.084S64.75 4 64.75 4c1.583 8.75-3.333 11.833-8 20.583s2.833 9.167.417 15.163-7.334-1.08-7.75-4.83 1.25-19-3.33-8.75a31.856 31.856 0 0 0-2.42 19s5.916 9.084-.75 10.25-7.084-15.083-7.084-15.083c-6.254 4.928-5.826 14.62-4.294 22.068A23.06 23.06 0 0 1 41.81 60Z" class="colorffdb80 svgShape"></path><path fill="#e1ebf4" d="M99.25 83c-1.5 7-7.82 15.07-20.13 11.88l-3.15 3.05-1.43-1.36-1.03-.97-5.43-5.16 3.8-3.75S67.09 69.67 82.84 65.3c0 0 7.91.2 5.41 3.2s-8.5 11.12-8.5 11.12L86 86.69 97.62 76s3.13 0 1.63 7zm-40.63 31.74-11.24 10.88s-6.13 2.13-8.13-6.74l11.56-11.41 5.63 5.24 1.03.96z" class="colore1ebf4 svgShape"></path><path fill="#2d4356" d="M87.94 114.81a6.675 6.675 0 0 1 .08 9.57l-1.65 1.64a6.865 6.865 0 0 1-4.85 1.98 7.016 7.016 0 0 1-4.9-1.98l-28.5-26.51a22.9 22.9 0 0 1-6.88 1.08 17.685 17.685 0 0 1-12.57-4.85 18.338 18.338 0 0 1-.22-26.3A18.93 18.93 0 0 1 41.81 64a19.249 19.249 0 0 1 13.47 5.46 18.426 18.426 0 0 1 4.79 18.89Zm-2.75 6.74a2.675 2.675 0 0 0 .81-1.91 2.753 2.753 0 0 0-.85-1.96L55.5 89.52l.77-2.39a14.403 14.403 0 0 0-3.78-14.8A15.219 15.219 0 0 0 41.81 68a14.907 14.907 0 0 0-10.55 4.28A14.199 14.199 0 0 0 27 82.49a14.497 14.497 0 0 0 4.46 10.39 13.786 13.786 0 0 0 9.78 3.71 18.6 18.6 0 0 0 5.67-.9l2.23-.7 30.2 28.1.03.03.03.03a3.029 3.029 0 0 0 2.12.85 2.864 2.864 0 0 0 2.04-.82Z" class="color2d4356 svgShape"></path><path fill="#e1ebf4" d="M86 119.64a2.675 2.675 0 0 1-.81 1.91l-1.63 1.63a2.864 2.864 0 0 1-2.04.82 3.029 3.029 0 0 1-2.12-.85l-.03-.03-.03-.03-30.2-28.1-2.23.7a18.6 18.6 0 0 1-5.67.9 13.786 13.786 0 0 1-9.78-3.71A14.497 14.497 0 0 1 27 82.49a14.199 14.199 0 0 1 4.26-10.21A14.907 14.907 0 0 1 41.81 68a15.219 15.219 0 0 1 10.68 4.33 14.403 14.403 0 0 1 3.78 14.8l-.77 2.39 29.65 28.16a2.753 2.753 0 0 1 .85 1.96Z" class="colore1ebf4 svgShape"></path><path fill="#2d4356" d="M43.93 73.39 34.81 76l-2.61 8.89 6.5 6.28 9.12-2.6 2.61-8.9Zm.67 11.94-4.78 1.36-3.1-2.99 1.31-4.46 4.78-1.37 3.1 3Z" class="color2d4356 svgShape"></path><path fill="#ffffff" d="m45.91 80.87-1.31 4.46-4.78 1.36-3.1-2.99 1.31-4.46 4.78-1.37 3.1 3z" class="colorfff svgShape"></path><path fill="#2d4356" d="m57.471 113.669-9.401 9.415a3.058 3.058 0 0 1-4.29.072l-.937-.928a2.843 2.843 0 0 1-.843-2.034 3.048 3.048 0 0 1 .924-2.178l9.256-9.27-2.93-2.725-9.149 9.162a7.013 7.013 0 0 0-2.101 5.01 6.816 6.816 0 0 0 2.027 4.876l.937.928a6.916 6.916 0 0 0 4.891 1.997 7.144 7.144 0 0 0 5.038-2.077l9.509-9.522Z" class="color2d4356 svgShape"></path><path fill="#9fa5aa" d="m57.47 113.67-9.4 9.41a3.053 3.053 0 0 1-4.29.08l-.94-.93a2.888 2.888 0 0 1-.66-3.04 2.793 2.793 0 0 0 .66 1.04l.94.93a3.053 3.053 0 0 0 4.29-.08l8.37-8.37Z" opacity=".5" class="color9fa5aa svgShape"></path><path fill="#f9bf64" d="M58.074 66.597a22.509 22.509 0 0 1 6.754 13.76 20.145 20.145 0 0 1 5.698-14.206 21.97 21.97 0 0 1 3.316-2.7A14.942 14.942 0 0 0 72.5 58.75c-2.625-5.25-5.125-3-5.125-3-.25-5.125-3.378-11.375-3.378-11.375s-.122.5-4.497 7.5a67.079 67.079 0 0 0-5.476 11.585 23.238 23.238 0 0 1 4.05 3.137Z" class="colorf9bf64 svgShape"></path><path fill="#2d4356" d="M101.54 77.157a16.302 16.302 0 0 1-4.373 15.505c-4.112 4.08-10.72 5.507-16.788 3.726l-2.936 2.94-2.902-2.755 4.788-4.794 1.204.448c4.124 1.534 9.996 1.385 13.818-2.405a12.302 12.302 0 0 0 3.493-10.76l-7.186 7.126a6.118 6.118 0 0 1-8.788.23l-2.47-2.45a6.076 6.076 0 0 1-1.833-4.335 6.383 6.383 0 0 1 1.943-4.546l7.053-6.993a11.694 11.694 0 0 0-1.519-.099 12.592 12.592 0 0 0-8.886 3.837c-3.812 3.78-3.963 9.585-2.42 13.66l.456 1.208-4.891 4.899-2.902-2.755 3.175-3.18c-1.795-6.027-.352-12.59 3.766-16.672a16.433 16.433 0 0 1 15.361-4.568 3.357 3.357 0 0 1 2.532 2.34 3.26 3.26 0 0 1-.901 3.224l-8.007 7.939a2.417 2.417 0 0 0-.76 1.707 2.077 2.077 0 0 0 .649 1.494l2.47 2.45a2.155 2.155 0 0 0 3.155-.23l8.008-7.94a3.28 3.28 0 0 1 3.236-.841 3.54 3.54 0 0 1 2.455 2.59zM68.152 59.83a2.784 2.784 0 0 0 2.167-.226 3.07 3.07 0 0 0 .486-.334q.102.22.203.446a10.583 10.583 0 0 1 .97 5.13 21.42 21.42 0 0 1 3.896-2.59 15.532 15.532 0 0 0-1.212-4.168 31.038 31.038 0 0 0-1.74-3.372 2.404 2.404 0 0 0-2.397-1.26 2.208 2.208 0 0 0-1.124.498 8.478 8.478 0 0 0-.01-.549 15.857 15.857 0 0 0-4.554-10.655 2.313 2.313 0 0 0-4.015 1.763c-.004.788-.356 3.102-3.537 7.567-1.997 2.803-4.256 6.46-5.016 10.403a23.047 23.047 0 0 1 3.751 2.352c.134-3.762 2.506-7.603 4.522-10.434a28.378 28.378 0 0 0 3.46-6.131 13.826 13.826 0 0 1 1.395 5.37c.012.203.003.446-.003.709-.038 1.495-.116 4.604 2.758 5.481z" class="color2d4356 svgShape"></path><path fill="#2d4356" d="M48.079 30.328a25.632 25.632 0 0 0 .063 8.057c.586 2.933 2.115 5 4.309 5.82a5.065 5.065 0 0 0 6.528-2.966c1.202-2.811.552-5.376-.022-7.638a14.906 14.906 0 0 1-.59-3.313 12.755 12.755 0 0 1 2.673-8.016 25.726 25.726 0 0 0 5.113-10.656 14.304 14.304 0 0 0 .382-4.245c2.385 3.137 4.563 8.252 2.077 15.263-.19.538-.409 1.107-.635 1.7-1.708 4.46-4.29 11.2 1.274 15.44 3.184 2.425 6.911 2.13 9.496-.757a8.397 8.397 0 0 0 1.934-6.396 9.563 9.563 0 0 1 1.104 6.838 15.03 15.03 0 0 1-1.756 4.03 16.137 16.137 0 0 0-2.29 5.953 7.59 7.59 0 0 0 7.962 8.39 6.485 6.485 0 0 0 4.408-2.306c1.476-1.775 2.012-4.279 1.591-7.442a1.928 1.928 0 0 0-.042-.221 5.2 5.2 0 0 1 2.611-5.464q-.006.49.007 1.005a17.872 17.872 0 0 0 .746 4.14c.175.663.34 1.29.456 1.895a22.508 22.508 0 0 1 .42 6.779 12.512 12.512 0 0 1-1.006 3.183c-.278.673-.564 1.37-.802 2.109-.163.505-.3 1-.435 1.493a7.17 7.17 0 0 1 1.43 2.677 7.251 7.251 0 0 1-1.001 6.022 7.326 7.326 0 0 1 2.554-1.082 23.158 23.158 0 0 1 1.26-7.885c.189-.588.434-1.182.692-1.812a15.661 15.661 0 0 0 1.281-4.249 26.318 26.318 0 0 0-.463-7.978 31.209 31.209 0 0 0-.519-2.174 14.672 14.672 0 0 1-.614-3.223 17.137 17.137 0 0 1 .269-3.73 2 2 0 0 0-2.542-2.301c-8.06 2.445-8.93 8.477-8.254 11.44.238 1.902.004 3.359-.68 4.217a2.543 2.543 0 0 1-1.571.913 3.591 3.591 0 0 1-3.786-3.93 12.955 12.955 0 0 1 1.822-4.489 18.242 18.242 0 0 0 2.17-5.155 13.4 13.4 0 0 0-2.74-11.302 10.945 10.945 0 0 0-5.043-3.45 2 2 0 0 0-2.015 3.29 17.747 17.747 0 0 1 .545 2.386l.047.249c.441 2.262.203 3.869-.73 4.912-1.478 1.65-3.041 1.043-4.092.243-2.953-2.25-1.847-5.907.037-10.828.24-.624.47-1.226.67-1.794C77.92 8.35 64.657.2 64.514.143a2 2 0 0 0-2.708 2.227c1.046 5.555.817 6.63.436 8.412a21.764 21.764 0 0 1-4.336 9.005 16.82 16.82 0 0 0-3.538 10.568 18.126 18.126 0 0 0 .713 4.23c.498 1.963.89 3.515.22 5.081a1.121 1.121 0 0 1-1.448.792c-1.087-.406-1.572-1.777-1.788-2.856a22.206 22.206 0 0 1-.006-6.87l.107-1.07a13.31 13.31 0 0 0-1.15-7.143 10.931 10.931 0 0 0-4.885-5.15l-.007-.004a2 2 0 0 0-2.018 3.437 7.114 7.114 0 0 1 .518 1.832c.364 2.3-.809 4.85-1.944 7.318-.248.541-.492 1.073-.717 1.591-1.981 4.582-1.605 10.427 1.007 15.636.495.988 2.003 3.993 1.046 5.642a1.191 1.191 0 0 1-.9.617 3.492 3.492 0 0 1-2.61-.852c-2.692-2.298-2.513-7.456-2.144-11.133.007-.072.015-.221.02-.416.004-.134.013-.441.03-.647a2 2 0 0 0-2.886-2.516l-.003.002c-6.206 3.895-8.75 11.188-6.978 20.009a30.59 30.59 0 0 0 1.5 4.767l.178.477a22.739 22.739 0 0 1 3.635-1.698l-.07-.19a27.166 27.166 0 0 1-1.321-4.144c-.642-3.193-1.05-8.396 1.688-12.479-.074 4.08.62 8.334 3.756 11.011a7.428 7.428 0 0 0 5.88 1.751 5.202 5.202 0 0 0 3.685-2.552c1.83-3.153.345-6.899-.93-9.442-2.088-4.164-2.429-8.745-.911-12.255.212-.492.444-.995.68-1.508a32.947 32.947 0 0 0 1.859-4.666 11.098 11.098 0 0 1 .01 2.324Z" class="color2d4356 svgShape"></path><path fill="#ffffff" d="M86 119.64a2.587 2.587 0 0 1-.2 1 2.77 2.77 0 0 0-.65-.96L55.5 91.52l.49-1.53 29.16 27.69a2.753 2.753 0 0 1 .85 1.96Z" opacity=".5" class="colorfff svgShape"></path><path fill="#9fa5aa" d="M94.35 89.82c-3.82 3.79-9.69 3.94-13.82 2.41l-1.2-.45-4.79 4.79-1.03-.97 5.82-5.82 1.2.45c4.13 1.53 10 1.38 13.82-2.41a12.237 12.237 0 0 0 3.61-7.75 12.252 12.252 0 0 1-3.61 9.75Z" opacity=".5" class="color9fa5aa svgShape"></path><path fill="#ffffff" d="M56.92 83.8a14.499 14.499 0 0 0-4.43-9.47A15.219 15.219 0 0 0 41.81 70a14.907 14.907 0 0 0-10.55 4.28 14.133 14.133 0 0 0-4.22 9.2c-.03-.33-.04-.66-.04-.99a14.199 14.199 0 0 1 4.26-10.21A14.907 14.907 0 0 1 41.81 68a15.219 15.219 0 0 1 10.68 4.33 14.465 14.465 0 0 1 4.43 11.47Z" opacity=".5" class="colorfff svgShape"></path><path fill="#9fa5aa" d="M86 119.64a2.675 2.675 0 0 1-.81 1.91l-1.63 1.63a2.864 2.864 0 0 1-2.04.82 3.029 3.029 0 0 1-2.12-.85l-.03-.03-.03-.03-30.2-28.1-2.23.7a18.6 18.6 0 0 1-5.67.9 13.786 13.786 0 0 1-9.78-3.71A14.497 14.497 0 0 1 27 82.49c0-.34.01-.67.04-1.01a14.497 14.497 0 0 0 4.42 9.4 13.786 13.786 0 0 0 9.78 3.71 18.6 18.6 0 0 0 5.67-.9l2.23-.7 30.2 28.1.03.03.03.03a3.029 3.029 0 0 0 2.12.85 2.864 2.864 0 0 0 2.04-.82l1.63-1.63a2.7 2.7 0 0 0 .61-.91 2.662 2.662 0 0 1 .2 1Z" opacity=".5" class="color9fa5aa svgShape"></path><path fill="#ffffff" d="m86.56 68.09-1.94 1.92a12.676 12.676 0 0 0-8.46 3.82 11.666 11.666 0 0 0-3.3 7.57 12.125 12.125 0 0 1 3.3-9.57A12.609 12.609 0 0 1 85.04 68a12.789 12.789 0 0 1 1.52.09Z" opacity=".5" class="colorfff svgShape"></path><path fill="#f9edd2" d="M95.97 55.36a28.09 28.09 0 0 0-.49-3.92c-.12-.61-.28-1.23-.46-1.9a17.236 17.236 0 0 1-.74-4.14c-.01-.34-.01-.67-.01-1a5.58 5.58 0 0 0-2.59 3.56.44.44 0 0 0-.02-.1c-.04-.16-.76-3.24 2.61-5.46 0 .33 0 .66.01 1a17.236 17.236 0 0 0 .74 4.14c.18.67.34 1.29.46 1.9a23.967 23.967 0 0 1 .49 5.92zM81.94 38.44a9.185 9.185 0 0 0-1.26-3.82 8.419 8.419 0 0 1-1.93 6.4c-2.59 2.88-6.32 3.18-9.5.75a8.46 8.46 0 0 1-3.34-7.96 8.137 8.137 0 0 0 3.34 5.96c3.18 2.43 6.91 2.13 9.5-.75a8.419 8.419 0 0 0 1.93-6.4 9.454 9.454 0 0 1 1.26 5.82zM69.67 17.61a15.116 15.116 0 0 0-3.14-8.24 14.04 14.04 0 0 1-.38 4.25 25.642 25.642 0 0 1-5.11 10.65A12.778 12.778 0 0 0 58.41 31c-.02-.24-.04-.48-.04-.71a12.747 12.747 0 0 1 2.67-8.02 25.642 25.642 0 0 0 5.11-10.65 14.04 14.04 0 0 0 .38-4.25 14.953 14.953 0 0 1 3.14 10.24zM48.19 29.16a1.354 1.354 0 0 0-.02-.2 32.1 32.1 0 0 1-1.86 4.66c-.23.52-.46 1.02-.68 1.51a11.614 11.614 0 0 0-.89 3.79 12.45 12.45 0 0 1 .89-5.79c.22-.49.45-.99.68-1.51a32.1 32.1 0 0 0 1.86-4.66 10.06 10.06 0 0 1 .02 2.2zm-.71 27.67a5.226 5.226 0 0 1-3.69 2.55 7.396 7.396 0 0 1-5.88-1.75c-3.14-2.68-3.83-6.93-3.76-11.01a13.665 13.665 0 0 0-2.13 6.95 14.696 14.696 0 0 1 2.13-8.95c-.07 4.08.62 8.33 3.76 11.01a7.396 7.396 0 0 0 5.88 1.75 5.226 5.226 0 0 0 3.69-2.55 6.201 6.201 0 0 0 .78-2.36 6.863 6.863 0 0 1-.78 4.36z" opacity=".5" class="colorf9edd2 svgShape"></path></svg>